<svg width="225" height="42" viewBox="0 0 225 42" fill="none" xmlns="http://www.w3.org/2000/svg">
<path d="M80.8515 21.3396C80.8515 13.8058 75.1477 8.23066 67.5721 8.23066C59.9531 8.23066 54.2493 13.8058 54.2493 21.3396C54.2493 28.8734 59.9531 34.4485 67.5721 34.4485C75.1477 34.4485 80.8515 28.8734 80.8515 21.3396ZM52.0784 21.3396C52.0784 12.6995 58.6747 6.23022 67.5721 6.23022C76.4245 6.23022 83.0642 12.6561 83.0642 21.3396C83.0642 30.0231 76.4245 36.449 67.5721 36.449C58.6747 36.449 52.0784 29.9797 52.0784 21.3396Z" fill="white"/>
<path d="M113.157 34.2795V36.2381H89.1522V34.7041L109.71 8.40101H89.4078V6.44397H112.689V7.9749L92.1737 34.2795H113.157Z" fill="white"/>
<path d="M142.865 21.468H144.953V32.6199C142.27 35.1735 138.397 36.4503 134.311 36.4503C125.331 36.4503 118.733 30.0229 118.733 21.3394C118.733 12.6574 125.331 6.23157 134.354 6.23157C138.652 6.23157 142.441 7.59205 145.08 10.3161L143.718 11.7634C141.121 9.20974 138.014 8.232 134.396 8.232C126.65 8.232 120.903 13.849 120.903 21.3394C120.903 28.7895 126.65 34.4499 134.396 34.4499C137.544 34.4499 140.44 33.6829 142.865 31.7258V21.468Z" fill="white"/>
<path d="M158.784 6.4436H156.613V36.2378H158.784V6.4436Z" fill="white"/>
<path d="M192.579 21.4678H194.665V32.6196C191.983 35.1733 188.111 36.4501 184.024 36.4501C175.045 36.4501 168.447 30.0227 168.447 21.3391C168.447 12.6572 175.045 6.23132 184.068 6.23132C188.366 6.23132 192.155 7.5918 194.794 10.3159L193.432 11.7631C190.835 9.2095 187.728 8.23175 184.11 8.23175C176.364 8.23175 170.616 13.8488 170.616 21.3391C170.616 28.7892 176.364 34.4496 184.11 34.4496C187.258 34.4496 190.154 33.6826 192.579 31.7256V21.4678Z" fill="white"/>
<path d="M203.305 32.407L204.284 30.7893C206.326 32.9183 210.116 34.5345 214.117 34.5345C220.073 34.5345 222.712 31.939 222.712 28.7036C222.712 19.766 204.113 25.1289 204.113 14.1475C204.113 9.93431 207.347 6.23096 214.669 6.23096C217.946 6.23096 221.35 7.25209 223.65 8.91163L222.841 10.6564C220.372 8.95501 217.349 8.14616 214.669 8.14616C208.881 8.14616 206.284 10.8268 206.284 14.1041C206.284 23.0432 224.885 17.7656 224.885 28.5766C224.885 32.7897 221.522 36.4497 214.159 36.4497C209.73 36.4497 205.475 34.7902 203.305 32.407Z" fill="white"/>
<path d="M16.4083 8.33566L14.9347 3.40509C12.9916 0.835987 9.25419 3.49031 6.89117 5.68289L6.85863 5.71388L6.82299 5.74642C5.56478 6.9132 5.6593 8.93223 7.01978 9.9766L9.57649 11.9367C10.0878 12.3272 10.8037 12.2559 11.2453 11.7895C12.674 10.2819 14.4342 9.09183 16.4083 8.33566Z" fill="#008599"/>
<path d="M27.8819 3.407L26.4114 8.33602C28.3855 9.09219 30.1458 10.2822 31.5729 11.7899C32.0161 12.2563 32.7319 12.3276 33.2417 11.9356L35.7953 9.97696C37.1589 8.93259 37.2534 6.91356 35.9952 5.74523L35.9611 5.71269L35.927 5.6817C33.564 3.49222 29.8266 0.837896 27.8819 3.407Z" fill="#00D3DE"/>
<path d="M12.5896 32.2791L9.07221 35.9778C7.80936 38.9683 11.99 40.9037 15.0921 41.8613L15.1386 41.8752C16.778 42.3819 18.4794 41.2911 18.7025 39.5881L19.1224 36.3946C19.2076 35.7577 18.7862 35.172 18.1617 35.0233C16.1411 34.5398 14.2321 33.6116 12.5896 32.2791Z" fill="#B339B1"/>
<path d="M2.62732 24.8105L7.58579 23.6158C7.25264 21.527 7.40449 19.4073 7.99641 17.4177C8.17925 16.801 7.8833 16.1455 7.28828 15.8992L4.31475 14.6673C2.72804 14.0088 0.932149 14.9354 0.550967 16.6104L0.540121 16.6569C-0.180406 19.821 -0.594128 24.4091 2.62732 24.8105Z" fill="#2F3192"/>
<path d="M35.2349 23.6149L40.1949 24.8096C43.4164 24.4082 43.0042 19.8201 42.2806 16.656L42.2697 16.6095C41.8886 14.936 40.0942 14.0079 38.5075 14.6648L35.5309 15.8983C34.939 16.1446 34.6399 16.8016 34.8243 17.4168C35.4162 19.4079 35.5681 21.5261 35.2349 23.6149Z" fill="#ECB22D"/>
<path d="M33.7643 36.0171L30.2314 32.2781C28.5889 33.6107 26.6783 34.5388 24.6593 35.0223C24.0333 35.1726 23.6134 35.7567 23.6971 36.3952L24.1154 39.5856C24.3401 41.287 26.0415 42.3794 27.6809 41.8743L27.7274 41.8603L27.7708 41.8464C30.8497 40.895 35.0179 38.9859 33.7643 36.0171Z" fill="#C42760"/>
<path d="M6.89224 5.68209C9.26301 3.49107 13.0206 3.85676 14.9683 6.43206L16.4094 8.33487L18.4548 11.0403C18.7321 11.4076 19.0622 11.7066 19.4232 11.936C19.9051 12.2428 20.4443 12.4272 20.996 12.4876C21.1323 12.5031 21.2718 12.5108 21.4097 12.5108C21.6871 12.5108 21.9644 12.4798 22.234 12.4194C22.5068 12.3574 22.7717 12.266 23.0258 12.1436C23.5325 11.8988 23.9958 11.53 24.3662 11.0403L26.4131 8.33487L27.8511 6.43206C29.8003 3.85676 33.5564 3.49107 35.9287 5.68209C35.9395 5.69294 35.9504 5.70378 35.9628 5.71308V5.71153C32.1432 2.16933 27.0314 0 21.4097 0C15.7896 0 10.6777 2.16933 6.85815 5.71153L6.8597 5.71308C6.869 5.70378 6.8814 5.69294 6.89224 5.68209Z" fill="#1FBCFF"/>
<path d="M15.0479 41.8472C11.9659 40.8881 10.4039 37.4528 11.6591 34.4777L12.5888 32.2789L13.909 29.1551C14.0872 28.7305 14.1801 28.2951 14.1987 27.8675C14.2235 27.2972 14.1119 26.7379 13.8904 26.2296C13.8346 26.1026 13.7726 25.9786 13.7029 25.8593C13.565 25.6207 13.4007 25.396 13.2101 25.1914C13.0211 24.9869 12.8103 24.8025 12.5764 24.6445C12.11 24.3268 11.5614 24.1114 10.9509 24.0339L7.58692 23.6156L5.2177 23.3196C2.01329 22.9214 -0.180829 19.8502 0.530401 16.7001C0.5335 16.6861 0.536599 16.6706 0.541248 16.6567H0.539699C-0.619342 21.736 0.0577978 27.2476 2.86863 32.1147C5.67791 36.9833 10.1126 40.3256 15.0912 41.8627V41.8596C15.0773 41.8565 15.0634 41.8519 15.0479 41.8472Z" fill="#7861FF"/>
<path d="M42.2903 16.7004C43.0015 19.8506 40.8058 22.9202 37.603 23.3199L35.2338 23.6144L31.8682 24.0343C31.4111 24.0916 30.9881 24.2264 30.6084 24.4263C30.1017 24.6897 29.671 25.0647 29.344 25.5125C29.2619 25.6241 29.186 25.7387 29.1163 25.8596C28.9783 26.0982 28.8668 26.3539 28.7831 26.6189C28.701 26.8854 28.6483 27.1597 28.6282 27.4417C28.5848 28.0041 28.6731 28.5883 28.9117 29.1554L30.2319 32.2793L31.1601 34.478C32.4167 37.4516 30.8548 40.8884 27.7713 41.8476C27.7573 41.8507 27.7418 41.8553 27.7294 41.8599V41.8615C32.7065 40.3259 37.1412 36.9821 39.9505 32.115C42.7629 27.2464 43.44 21.7363 42.281 16.6555L42.2794 16.657C42.2825 16.671 42.2856 16.6864 42.2903 16.7004Z" fill="#F56336"/>
</svg>
